<?xml version="1.0" standalone="no"?>
<!DOCTYPE svg PUBLIC "-//W3C//DTD SVG 20010904//EN"
 "http://www.w3.org/TR/2001/REC-SVG-20010904/DTD/svg10.dtd">
<svg version="1.0" xmlns="http://www.w3.org/2000/svg"
 width="1254.000000pt" height="1254.000000pt" viewBox="0 0 1254.000000 1254.000000"
 preserveAspectRatio="xMidYMid meet">

<g transform="translate(0.000000,1254.000000) scale(0.100000,-0.100000)"
fill="#000000" stroke="none">
<path d="M3885 12219 c-580 -4 -909 -10 -965 -18 -511 -70 -895 -207 -1259
-452 -366 -244 -677 -598 -872 -989 -181 -362 -257 -694 -279 -1215 -14 -337
-6 -6440 9 -6590 74 -749 314 -1277 788 -1735 425 -411 966 -669 1582 -755
249 -34 475 -36 3536 -32 3271 4 3066 0 3375 56 724 129 1383 555 1777 1146
293 440 427 909 453 1585 13 340 13 6104 0 6375 -29 589 -161 1022 -441 1440
-481 718 -1245 1130 -2189 1180 -157 9 -4428 11 -5515 4z m1425 -1933 c0 -2
-33 -23 -72 -46 -174 -102 -387 -270 -547 -430 -346 -345 -593 -752 -757
-1245 -92 -278 -123 -477 -131 -840 -6 -284 5 -428 52 -669 152 -791 642
-1526 1318 -1979 409 -273 833 -429 1357 -499 127 -16 567 -17 690 0 474 65
859 207 1234 454 49 32 90 57 92 55 10 -10 -151 -194 -305 -348 -247 -247
-448 -403 -756 -589 -66 -40 -122 -74 -125 -76 -2 -3 6 -7 17 -10 12 -4 23
-16 25 -27 2 -12 13 -26 24 -32 12 -6 29 -17 37 -24 9 -7 21 -10 27 -6 5 3 10
2 10 -3 0 -5 14 -9 31 -10 18 0 37 -6 42 -11 6 -6 19 -11 29 -11 10 0 17 -5
15 -12 -1 -7 5 -13 13 -13 31 -3 81 -18 86 -26 3 -5 12 -9 21 -9 22 0 85 -49
78 -61 -3 -5 0 -6 7 -4 8 3 23 -3 33 -13 11 -9 40 -24 65 -31 25 -8 49 -18 55
-23 5 -4 20 -8 35 -8 14 0 38 -7 53 -15 16 -8 46 -19 68 -25 21 -6 39 -16 39
-23 0 -9 3 -8 9 1 7 11 11 11 22 0 8 -8 75 -26 149 -41 182 -38 582 -136 776
-191 180 -51 508 -156 502 -161 -1 -2 -37 5 -78 14 -57 14 -81 15 -102 7 -23
-8 -46 -6 -116 13 -48 12 -94 24 -102 26 -8 2 -89 21 -180 43 -91 22 -183 43
-205 46 -22 4 -98 17 -170 30 -195 35 -314 55 -370 61 -52 5 -68 7 -145 19
-46 8 -273 10 -300 4 -8 -2 -21 -7 -28 -12 -8 -5 -20 -2 -30 8 -12 10 -22 12
-32 6 -8 -5 -17 -7 -21 -4 -4 2 -11 -1 -15 -7 -4 -8 -9 -7 -15 2 -6 10 -9 11
-9 2 0 -7 -5 -13 -11 -13 -5 0 -7 6 -3 13 6 9 5 9 -7 0 -8 -6 -23 -11 -34 -9
-10 1 -27 -4 -37 -13 -10 -9 -26 -17 -36 -18 -60 -9 -89 -9 -105 -1 -12 6 -17
5 -15 -4 2 -7 -3 -12 -11 -10 -7 1 -19 -3 -27 -9 -11 -9 -14 -9 -14 0 0 7 -10
3 -22 -9 -25 -23 -38 -26 -38 -7 0 9 -3 8 -9 -2 -5 -8 -14 -10 -21 -6 -9 5
-11 4 -6 -3 4 -7 3 -12 -3 -12 -5 0 -13 5 -16 10 -3 5 -11 10 -16 10 -6 0 -7
-5 -3 -12 5 -7 2 -9 -9 -5 -8 3 -21 -1 -27 -8 -8 -9 -21 -13 -35 -9 -13 3 -26
1 -29 -5 -4 -6 -12 -11 -17 -11 -6 0 -4 7 5 15 8 8 19 15 25 15 6 0 11 5 11
11 0 7 -8 6 -23 -4 -31 -20 -84 -31 -92 -18 -4 8 -12 8 -26 1 -11 -6 -23 -8
-28 -5 -5 3 -22 0 -38 -6 -34 -13 -103 -17 -109 -7 -3 4 -16 1 -30 -8 -13 -9
-24 -12 -24 -6 0 6 -8 9 -17 7 -10 -1 -17 -8 -15 -14 1 -6 -5 -11 -14 -11 -8
0 -12 4 -9 10 10 16 -12 12 -29 -5 -17 -17 -30 -20 -21 -5 12 19 -84 4 -107
-16 -16 -14 -20 -15 -16 -4 6 16 -8 17 -94 6 -21 -2 -38 -1 -38 3 0 11 -44 8
-52 -4 -4 -6 -16 0 -29 14 -17 18 -23 20 -30 9 -8 -12 -13 -4 -10 15 1 4 -13
0 -29 -8 -19 -10 -40 -13 -53 -9 -31 10 -97 12 -129 3 -15 -4 -30 -4 -33 1 -3
4 -21 7 -40 5 -20 -2 -35 1 -35 7 0 6 -11 3 -25 -6 -14 -9 -25 -12 -25 -6 0 5
-5 10 -11 10 -5 0 -7 -5 -4 -10 10 -16 -12 -12 -29 6 -10 9 -16 11 -16 4 0 -7
-8 -9 -21 -5 -34 11 -53 13 -64 6 -5 -3 -24 -6 -40 -6 -17 -1 -35 -4 -41 -7
-5 -4 -16 -3 -23 2 -8 4 -27 4 -42 0 -16 -5 -31 -5 -33 -1 -4 5 -61 7 -61 1 0
-9 -48 -4 -56 6 -9 11 -15 10 -34 -2 -17 -11 -29 -13 -42 -6 -10 5 -25 7 -33
5 -13 -4 -13 -3 0 6 8 5 11 13 7 17 -3 4 -13 2 -20 -5 -11 -9 -17 -8 -27 4 -8
10 -25 13 -52 11 -27 -3 -41 0 -45 10 -3 8 -12 14 -20 14 -8 0 -12 -4 -8 -9 3
-5 1 -12 -4 -15 -5 -3 -12 1 -15 9 -4 10 -16 15 -33 13 -18 -2 -27 1 -25 9 1
7 -5 13 -14 13 -8 0 -13 -3 -11 -7 3 -5 -15 -8 -39 -8 -32 0 -44 4 -44 15 0
10 -3 11 -8 4 -4 -6 -18 -17 -32 -24 -21 -10 -23 -10 -12 1 17 18 16 45 -1 30
-10 -8 -19 -6 -35 10 -12 11 -22 15 -22 10 0 -6 -14 -8 -32 -5 -18 2 -51 6
-73 7 -22 2 -46 6 -53 11 -6 4 -16 4 -22 1 -5 -3 -10 -1 -10 6 0 7 -2 10 -6 7
-3 -3 -21 -2 -40 2 -19 4 -36 4 -39 0 -2 -4 -18 -6 -35 -4 -16 2 -30 -1 -30
-7 0 -6 -5 -7 -12 -2 -18 11 -68 12 -68 2 0 -5 -12 -9 -26 -9 -14 0 -23 4 -20
8 7 12 -187 7 -254 -6 -30 -6 -98 -17 -150 -26 -259 -43 -590 -111 -713 -147
-37 -11 -83 -22 -102 -24 -19 -3 -38 -5 -42 -6 -21 -4 -33 2 -27 13 4 7 3 8
-5 4 -6 -4 -9 -12 -6 -17 4 -5 0 -9 -9 -9 -8 0 -23 -3 -33 -6 -15 -5 -15 -4
-3 5 8 6 11 11 6 11 -5 0 -18 -7 -28 -17 -10 -9 -21 -13 -25 -9 -4 4 -1 12 7
17 12 9 11 9 -5 4 -11 -4 -36 -9 -55 -11 -48 -6 160 66 365 125 205 60 600
159 783 197 73 15 127 31 121 35 -13 8 40 28 84 31 15 1 27 6 27 11 0 4 4 5
10 2 5 -3 19 0 31 8 11 8 29 13 40 10 11 -3 21 1 25 11 3 9 17 16 29 16 13 0
27 5 30 10 4 6 10 8 15 5 5 -3 11 -2 14 3 3 5 -44 27 -104 51 -193 75 -453
211 -645 339 -340 227 -569 442 -806 758 -523 696 -748 1595 -619 2474 141
962 669 1829 1440 2367 351 245 724 415 1093 497 162 37 317 57 317 42z m2889
-351 c27 -321 74 -632 122 -806 55 -199 151 -386 265 -516 155 -176 420 -307
764 -377 135 -27 390 -66 436 -66 67 -1 -8 -17 -131 -29 -377 -36 -719 -139
-911 -276 -225 -161 -367 -407 -448 -775 -30 -138 -70 -400 -87 -565 -6 -66
-15 -126 -18 -133 -4 -6 -15 62 -24 152 -55 519 -140 846 -270 1042 -181 274
-453 432 -884 514 -116 22 -344 50 -405 50 -21 0 -38 5 -38 10 0 6 14 10 32
10 52 0 355 49 468 76 330 77 518 170 680 333 250 252 353 596 426 1424 3 43
8 77 9 75 2 -2 8 -66 14 -143z m-5099 -6659 c0 -3 -4 -8 -10 -11 -5 -3 -10 -1
-10 4 0 6 5 11 10 11 6 0 10 -2 10 -4z"/>
<path d="M4418 3663 c7 -3 16 -2 19 1 4 3 -2 6 -13 5 -11 0 -14 -3 -6 -6z"/>
<path d="M4358 3653 c6 -2 18 -2 25 0 6 3 1 5 -13 5 -14 0 -19 -2 -12 -5z"/>
</g>
</svg>
